<mxfile host="app.diagrams.net" modified="2022-03-05T12:28:35.222Z" agent="5.0 (Macintosh; Intel Mac OS X 10_15_7) AppleWebKit/537.36 (KHTML, like Gecko) Chrome/98.0.4758.109 Safari/537.36" etag="3Lh9TJQI74JKx9jk1K_a" version="16.6.6" type="github">
  <diagram id="ePJBmbwyveyryYhwl3Lg" name="Page-1">
    <mxGraphModel dx="650" dy="796" grid="1" gridSize="10" guides="1" tooltips="1" connect="1" arrows="1" fold="1" page="1" pageScale="1" pageWidth="827" pageHeight="1169" math="0" shadow="0">
      <root>
        <mxCell id="0" />
        <mxCell id="1" parent="0" />
        <mxCell id="JcOEEfPNOUPCaery_RD2-1" value="" style="rounded=0;whiteSpace=wrap;html=1;" vertex="1" parent="1">
          <mxGeometry x="40" y="110" width="620" height="440" as="geometry" />
        </mxCell>
        <mxCell id="JcOEEfPNOUPCaery_RD2-2" value="" style="rounded=0;whiteSpace=wrap;html=1;" vertex="1" parent="1">
          <mxGeometry x="40" y="380" width="620" height="170" as="geometry" />
        </mxCell>
        <mxCell id="JcOEEfPNOUPCaery_RD2-3" value="&lt;font style=&quot;font-size: 36px&quot;&gt;Junathy&amp;nbsp;Technologies&lt;/font&gt;" style="text;html=1;align=center;verticalAlign=middle;resizable=0;points=[];autosize=1;strokeColor=none;fillColor=none;fontSize=36;" vertex="1" parent="1">
          <mxGeometry x="170" y="130" width="360" height="50" as="geometry" />
        </mxCell>
        <mxCell id="JcOEEfPNOUPCaery_RD2-9" value="" style="group" vertex="1" connectable="0" parent="1">
          <mxGeometry x="135" y="470" width="430" height="50" as="geometry" />
        </mxCell>
        <mxCell id="JcOEEfPNOUPCaery_RD2-5" value="" style="rounded=0;whiteSpace=wrap;html=1;fontSize=36;" vertex="1" parent="JcOEEfPNOUPCaery_RD2-9">
          <mxGeometry y="10" width="430" height="40" as="geometry" />
        </mxCell>
        <mxCell id="JcOEEfPNOUPCaery_RD2-6" value="&lt;font style=&quot;font-size: 18px&quot;&gt;Prologue&lt;/font&gt;" style="text;html=1;align=center;verticalAlign=middle;resizable=0;points=[];autosize=1;strokeColor=none;fillColor=none;fontSize=36;" vertex="1" parent="JcOEEfPNOUPCaery_RD2-9">
          <mxGeometry width="90" height="50" as="geometry" />
        </mxCell>
        <mxCell id="JcOEEfPNOUPCaery_RD2-7" value="&lt;font style=&quot;font-size: 18px&quot;&gt;Projects&lt;/font&gt;" style="text;html=1;align=center;verticalAlign=middle;resizable=0;points=[];autosize=1;strokeColor=none;fillColor=none;fontSize=36;" vertex="1" parent="JcOEEfPNOUPCaery_RD2-9">
          <mxGeometry x="166" width="80" height="50" as="geometry" />
        </mxCell>
        <mxCell id="JcOEEfPNOUPCaery_RD2-8" value="&lt;font style=&quot;font-size: 18px&quot;&gt;Profile&lt;/font&gt;" style="text;html=1;align=center;verticalAlign=middle;resizable=0;points=[];autosize=1;strokeColor=none;fillColor=none;fontSize=36;" vertex="1" parent="JcOEEfPNOUPCaery_RD2-9">
          <mxGeometry x="350" width="70" height="50" as="geometry" />
        </mxCell>
      </root>
    </mxGraphModel>
  </diagram>
</mxfile>
